<svg xmlns="http://www.w3.org/2000/svg" viewBox="0 0 640 720" role="img" aria-label="Map outline of India">
  <!-- India boundary path generated from public geographic boundary data: https://github.com/johan/world.geo.json/blob/master/countries/IND.geo.json -->
  <defs>
    <filter id="india-outline-shadow" x="-20%" y="-20%" width="140%" height="140%">
      <feDropShadow dx="0" dy="18" flood-color="#020617" flood-opacity="0.35" stdDeviation="16" />
    </filter>
    <linearGradient id="india-outline-fill" x1="110" x2="560" y1="120" y2="650" gradientUnits="userSpaceOnUse">
      <stop offset="0" stop-color="#0a72b8" />
      <stop offset="1" stop-color="#005c9d" />
    </linearGradient>
  </defs>
  <path
    d="M219.7 81.2 L241.5 104.9 L239.4 121.5 L247.5 131.8 L246.8 142.2 L232.3 139.4 L237.9 161.8 L257.8 174.6 L286.0 188.8 L273.2 198.0 L265.3 216.9 L284.9 224.6 L304.0 234.5 L330.4 245.9 L358.2 248.5 L369.9 258.8 L385.5 260.7 L409.9 265.4 L426.8 265.1 L429.1 257.1 L426.4 244.2 L428.0 235.5 L440.3 231.2 L442.0 247.2 L442.5 251.2 L460.9 258.9 L473.6 255.8 L490.7 257.1 L507.2 256.5 L508.7 244.1 L500.4 237.6 L516.8 235.1 L535.2 220.0 L558.5 207.1 L575.5 212.1 L590.0 203.6 L599.5 216.2 L592.6 224.7 L614.5 227.7 L616.0 235.4 L608.9 239.1 L610.6 251.5 L596.1 247.9 L569.9 261.9 L570.5 273.5 L559.3 290.5 L558.3 300.3 L549.2 317.0 L533.4 312.4 L532.6 333.4 L528.0 340.3 L530.2 348.9 L520.2 353.7 L509.5 321.6 L503.9 321.6 L500.6 334.6 L489.5 324.1 L495.8 312.5 L504.8 311.4 L514.2 294.2 L502.5 290.8 L483.7 291.1 L464.4 288.3 L462.7 274.2 L453.0 273.2 L436.9 264.5 L429.8 278.2 L444.4 288.9 L431.7 296.5 L427.3 303.9 L439.7 309.3 L436.3 321.5 L443.3 336.7 L446.4 353.4 L443.5 360.8 L429.8 360.5 L404.8 364.7 L406.0 380.0 L395.1 392.0 L366.0 405.6 L343.3 429.4 L328.1 442.2 L307.9 455.5 L307.9 464.8 L297.8 469.8 L279.5 477.0 L270.1 478.1 L264.0 493.6 L268.2 519.9 L269.3 536.7 L260.7 555.9 L260.6 590.4 L250.1 591.3 L240.9 606.8 L247.1 613.5 L228.6 619.2 L221.8 633.0 L213.7 638.8 L194.5 619.9 L185.1 591.5 L177.3 571.1 L170.2 561.5 L159.5 542.1 L154.5 516.7 L150.9 504.1 L132.5 476.3 L124.1 437.0 L118.1 411.1 L118.1 386.5 L114.2 367.6 L84.7 379.7 L70.5 377.3 L44.0 352.7 L53.7 345.4 L47.8 337.4 L24.0 320.3 L37.5 306.7 L82.1 306.8 L78.0 289.4 L66.7 279.1 L64.4 263.5 L51.1 254.4 L73.4 233.2 L96.9 234.7 L118.1 213.5 L130.8 193.0 L150.5 172.6 L150.2 158.2 L167.5 146.5 L151.1 136.5 L144.1 122.8 L136.9 105.0 L146.8 96.3 L177.5 101.2 L200.1 98.2 L219.7 81.2 Z"
    fill="url(#india-outline-fill)"
    filter="url(#india-outline-shadow)"
    stroke="#d7f7e1"
    stroke-linejoin="round"
    stroke-width="5"
  />
  <path
    d="M219.7 81.2 L241.5 104.9 L239.4 121.5 L247.5 131.8 L246.8 142.2 L232.3 139.4 L237.9 161.8 L257.8 174.6 L286.0 188.8 L273.2 198.0 L265.3 216.9 L284.9 224.6 L304.0 234.5 L330.4 245.9 L358.2 248.5 L369.9 258.8 L385.5 260.7 L409.9 265.4 L426.8 265.1 L429.1 257.1 L426.4 244.2 L428.0 235.5 L440.3 231.2 L442.0 247.2 L442.5 251.2 L460.9 258.9 L473.6 255.8 L490.7 257.1 L507.2 256.5 L508.7 244.1 L500.4 237.6 L516.8 235.1 L535.2 220.0 L558.5 207.1 L575.5 212.1 L590.0 203.6 L599.5 216.2 L592.6 224.7 L614.5 227.7 L616.0 235.4 L608.9 239.1 L610.6 251.5 L596.1 247.9 L569.9 261.9 L570.5 273.5 L559.3 290.5 L558.3 300.3 L549.2 317.0 L533.4 312.4 L532.6 333.4 L528.0 340.3 L530.2 348.9 L520.2 353.7 L509.5 321.6 L503.9 321.6 L500.6 334.6 L489.5 324.1 L495.8 312.5 L504.8 311.4 L514.2 294.2 L502.5 290.8 L483.7 291.1 L464.4 288.3 L462.7 274.2 L453.0 273.2 L436.9 264.5 L429.8 278.2 L444.4 288.9 L431.7 296.5 L427.3 303.9 L439.7 309.3 L436.3 321.5 L443.3 336.7 L446.4 353.4 L443.5 360.8 L429.8 360.5 L404.8 364.7 L406.0 380.0 L395.1 392.0 L366.0 405.6 L343.3 429.4 L328.1 442.2 L307.9 455.5 L307.9 464.8 L297.8 469.8 L279.5 477.0 L270.1 478.1 L264.0 493.6 L268.2 519.9 L269.3 536.7 L260.7 555.9 L260.6 590.4 L250.1 591.3 L240.9 606.8 L247.1 613.5 L228.6 619.2 L221.8 633.0 L213.7 638.8 L194.5 619.9 L185.1 591.5 L177.3 571.1 L170.2 561.5 L159.5 542.1 L154.5 516.7 L150.9 504.1 L132.5 476.3 L124.1 437.0 L118.1 411.1 L118.1 386.5 L114.2 367.6 L84.7 379.7 L70.5 377.3 L44.0 352.7 L53.7 345.4 L47.8 337.4 L24.0 320.3 L37.5 306.7 L82.1 306.8 L78.0 289.4 L66.7 279.1 L64.4 263.5 L51.1 254.4 L73.4 233.2 L96.9 234.7 L118.1 213.5 L130.8 193.0 L150.5 172.6 L150.2 158.2 L167.5 146.5 L151.1 136.5 L144.1 122.8 L136.9 105.0 L146.8 96.3 L177.5 101.2 L200.1 98.2 L219.7 81.2 Z"
    fill="none"
    opacity="0.24"
    stroke="#ffffff"
    stroke-linejoin="round"
    stroke-width="2"
  />
</svg>
